<?xml version="1.0" standalone="no"?>
<svg xmlns:xlink="http://www.w3.org/1999/xlink" id="wave" style="transform:rotate(0deg); transition: 0.3s" viewBox="0 0 1440 490" version="1.1" xmlns="http://www.w3.org/2000/svg"><defs><linearGradient id="sw-gradient-0" x1="0" x2="0" y1="1" y2="0"><stop stop-color="rgba(229, 231, 235, 1)" offset="0%"/><stop stop-color="rgba(229, 231, 235, 1)" offset="100%"/></linearGradient></defs><path style="transform:translate(0, 0px); opacity:1" fill="url(#sw-gradient-0)" d="M0,196L80,163.3C160,131,320,65,480,73.5C640,82,800,163,960,212.3C1120,261,1280,278,1440,253.2C1600,229,1760,163,1920,163.3C2080,163,2240,229,2400,269.5C2560,310,2720,327,2880,343C3040,359,3200,376,3360,392C3520,408,3680,425,3840,408.3C4000,392,4160,343,4320,294C4480,245,4640,196,4800,147C4960,98,5120,49,5280,40.8C5440,33,5600,65,5760,98C5920,131,6080,163,6240,204.2C6400,245,6560,294,6720,269.5C6880,245,7040,147,7200,155.2C7360,163,7520,278,7680,302.2C7840,327,8000,261,8160,261.3C8320,261,8480,327,8640,367.5C8800,408,8960,425,9120,424.7C9280,425,9440,408,9600,334.8C9760,261,9920,131,10080,130.7C10240,131,10400,261,10560,294C10720,327,10880,261,11040,212.3C11200,163,11360,131,11440,114.3L11520,98L11520,490L11440,490C11360,490,11200,490,11040,490C10880,490,10720,490,10560,490C10400,490,10240,490,10080,490C9920,490,9760,490,9600,490C9440,490,9280,490,9120,490C8960,490,8800,490,8640,490C8480,490,8320,490,8160,490C8000,490,7840,490,7680,490C7520,490,7360,490,7200,490C7040,490,6880,490,6720,490C6560,490,6400,490,6240,490C6080,490,5920,490,5760,490C5600,490,5440,490,5280,490C5120,490,4960,490,4800,490C4640,490,4480,490,4320,490C4160,490,4000,490,3840,490C3680,490,3520,490,3360,490C3200,490,3040,490,2880,490C2720,490,2560,490,2400,490C2240,490,2080,490,1920,490C1760,490,1600,490,1440,490C1280,490,1120,490,960,490C800,490,640,490,480,490C320,490,160,490,80,490L0,490Z"/></svg>