<?xml version="1.0" standalone="no"?>
<svg xmlns:xlink="http://www.w3.org/1999/xlink" id="wave" style="transform:rotate(0deg); transition: 0.3s" viewBox="0 0 1440 490" version="1.1" xmlns="http://www.w3.org/2000/svg"><defs><linearGradient id="sw-gradient-0" x1="0" x2="0" y1="1" y2="0"><stop stop-color="rgba(227.999, 147.558, 121.723, 1)" offset="0%"/><stop stop-color="rgba(234.829, 200.735, 125.369, 1)" offset="100%"/></linearGradient></defs><path style="transform:translate(0, 0px); opacity:1" fill="url(#sw-gradient-0)" d="M0,98L40,138.8C80,180,160,261,240,253.2C320,245,400,147,480,98C560,49,640,49,720,106.2C800,163,880,278,960,343C1040,408,1120,425,1200,408.3C1280,392,1360,343,1440,285.8C1520,229,1600,163,1680,130.7C1760,98,1840,98,1920,114.3C2000,131,2080,163,2160,196C2240,229,2320,261,2400,261.3C2480,261,2560,229,2640,253.2C2720,278,2800,359,2880,375.7C2960,392,3040,343,3120,310.3C3200,278,3280,261,3360,253.2C3440,245,3520,245,3600,220.5C3680,196,3760,147,3840,122.5C3920,98,4000,98,4080,106.2C4160,114,4240,131,4320,179.7C4400,229,4480,310,4560,326.7C4640,343,4720,294,4800,253.2C4880,212,4960,180,5040,138.8C5120,98,5200,49,5280,49C5360,49,5440,98,5520,114.3C5600,131,5680,114,5720,106.2L5760,98L5760,490L5720,490C5680,490,5600,490,5520,490C5440,490,5360,490,5280,490C5200,490,5120,490,5040,490C4960,490,4880,490,4800,490C4720,490,4640,490,4560,490C4480,490,4400,490,4320,490C4240,490,4160,490,4080,490C4000,490,3920,490,3840,490C3760,490,3680,490,3600,490C3520,490,3440,490,3360,490C3280,490,3200,490,3120,490C3040,490,2960,490,2880,490C2800,490,2720,490,2640,490C2560,490,2480,490,2400,490C2320,490,2240,490,2160,490C2080,490,2000,490,1920,490C1840,490,1760,490,1680,490C1600,490,1520,490,1440,490C1360,490,1280,490,1200,490C1120,490,1040,490,960,490C880,490,800,490,720,490C640,490,560,490,480,490C400,490,320,490,240,490C160,490,80,490,40,490L0,490Z"/><defs><linearGradient id="sw-gradient-1" x1="0" x2="0" y1="1" y2="0"><stop stop-color="rgba(241.659, 169.824, 146.752, 1)" offset="0%"/><stop stop-color="rgba(223.445, 189.825, 115.507, 1)" offset="100%"/></linearGradient></defs><path style="transform:translate(0, 50px); opacity:0.9" fill="url(#sw-gradient-1)" d="M0,343L40,302.2C80,261,160,180,240,171.5C320,163,400,229,480,277.7C560,327,640,359,720,310.3C800,261,880,131,960,130.7C1040,131,1120,261,1200,310.3C1280,359,1360,327,1440,261.3C1520,196,1600,98,1680,114.3C1760,131,1840,261,1920,318.5C2000,376,2080,359,2160,351.2C2240,343,2320,343,2400,318.5C2480,294,2560,245,2640,220.5C2720,196,2800,196,2880,163.3C2960,131,3040,65,3120,32.7C3200,0,3280,0,3360,73.5C3440,147,3520,294,3600,351.2C3680,408,3760,376,3840,367.5C3920,359,4000,376,4080,359.3C4160,343,4240,294,4320,245C4400,196,4480,147,4560,138.8C4640,131,4720,163,4800,155.2C4880,147,4960,98,5040,130.7C5120,163,5200,278,5280,326.7C5360,376,5440,359,5520,310.3C5600,261,5680,180,5720,138.8L5760,98L5760,490L5720,490C5680,490,5600,490,5520,490C5440,490,5360,490,5280,490C5200,490,5120,490,5040,490C4960,490,4880,490,4800,490C4720,490,4640,490,4560,490C4480,490,4400,490,4320,490C4240,490,4160,490,4080,490C4000,490,3920,490,3840,490C3760,490,3680,490,3600,490C3520,490,3440,490,3360,490C3280,490,3200,490,3120,490C3040,490,2960,490,2880,490C2800,490,2720,490,2640,490C2560,490,2480,490,2400,490C2320,490,2240,490,2160,490C2080,490,2000,490,1920,490C1840,490,1760,490,1680,490C1600,490,1520,490,1440,490C1360,490,1280,490,1200,490C1120,490,1040,490,960,490C880,490,800,490,720,490C640,490,560,490,480,490C400,490,320,490,240,490C160,490,80,490,40,490L0,490Z"/></svg>