<?xml version="1.0" standalone="no"?>
<svg xmlns:xlink="http://www.w3.org/1999/xlink" id="wave" style="transform:rotate(0deg); transition: 0.3s" viewBox="0 0 1440 490" version="1.1" xmlns="http://www.w3.org/2000/svg"><defs><linearGradient id="sw-gradient-0" x1="0" x2="0" y1="1" y2="0"><stop stop-color="rgba(232, 240, 246, 1)" offset="0%"/><stop stop-color="rgba(234.829, 224.803, 225.673, 1)" offset="100%"/></linearGradient></defs><path style="transform:translate(0, 0px); opacity:1" fill="url(#sw-gradient-0)" d="M0,98L80,130.7C160,163,320,229,480,212.3C640,196,800,98,960,122.5C1120,147,1280,294,1440,334.8C1600,376,1760,310,1920,245C2080,180,2240,114,2400,81.7C2560,49,2720,49,2880,98C3040,147,3200,245,3360,236.8C3520,229,3680,114,3840,73.5C4000,33,4160,65,4320,114.3C4480,163,4640,229,4800,236.8C4960,245,5120,196,5280,155.2C5440,114,5600,82,5760,114.3C5920,147,6080,245,6240,294C6400,343,6560,343,6720,318.5C6880,294,7040,245,7200,253.2C7360,261,7520,327,7680,302.2C7840,278,8000,163,8160,138.8C8320,114,8480,180,8640,196C8800,212,8960,180,9120,196C9280,212,9440,278,9600,261.3C9760,245,9920,147,10080,147C10240,147,10400,245,10560,253.2C10720,261,10880,180,11040,187.8C11200,196,11360,294,11440,343L11520,392L11520,490L11440,490C11360,490,11200,490,11040,490C10880,490,10720,490,10560,490C10400,490,10240,490,10080,490C9920,490,9760,490,9600,490C9440,490,9280,490,9120,490C8960,490,8800,490,8640,490C8480,490,8320,490,8160,490C8000,490,7840,490,7680,490C7520,490,7360,490,7200,490C7040,490,6880,490,6720,490C6560,490,6400,490,6240,490C6080,490,5920,490,5760,490C5600,490,5440,490,5280,490C5120,490,4960,490,4800,490C4640,490,4480,490,4320,490C4160,490,4000,490,3840,490C3680,490,3520,490,3360,490C3200,490,3040,490,2880,490C2720,490,2560,490,2400,490C2240,490,2080,490,1920,490C1760,490,1600,490,1440,490C1280,490,1120,490,960,490C800,490,640,490,480,490C320,490,160,490,80,490L0,490Z"/></svg>