<?xml version="1.0" standalone="no"?>
<svg xmlns:xlink="http://www.w3.org/1999/xlink" id="wave" style="transform:rotate(0deg); transition: 0.3s" viewBox="0 0 1440 490" version="1.1" xmlns="http://www.w3.org/2000/svg"><defs><linearGradient id="sw-gradient-0" x1="0" x2="0" y1="1" y2="0"><stop stop-color="rgba(212.061, 206.114, 204.204, 1)" offset="0%"/><stop stop-color="rgba(239.383, 236.199, 229.162, 1)" offset="100%"/></linearGradient></defs><path style="transform:translate(0, 0px); opacity:1" fill="url(#sw-gradient-0)" d="M0,196L80,163.3C160,131,320,65,480,81.7C640,98,800,196,960,236.8C1120,278,1280,261,1440,228.7C1600,196,1760,147,1920,155.2C2080,163,2240,229,2400,269.5C2560,310,2720,327,2880,277.7C3040,229,3200,114,3360,98C3520,82,3680,163,3840,171.5C4000,180,4160,114,4320,138.8C4480,163,4640,278,4800,318.5C4960,359,5120,327,5280,302.2C5440,278,5600,261,5760,212.3C5920,163,6080,82,6240,81.7C6400,82,6560,163,6720,236.8C6880,310,7040,376,7200,343C7360,310,7520,180,7680,179.7C7840,180,8000,310,8160,310.3C8320,310,8480,180,8640,122.5C8800,65,8960,82,9120,138.8C9280,196,9440,294,9600,302.2C9760,310,9920,229,10080,187.8C10240,147,10400,147,10560,138.8C10720,131,10880,114,11040,122.5C11200,131,11360,163,11440,179.7L11520,196L11520,490L11440,490C11360,490,11200,490,11040,490C10880,490,10720,490,10560,490C10400,490,10240,490,10080,490C9920,490,9760,490,9600,490C9440,490,9280,490,9120,490C8960,490,8800,490,8640,490C8480,490,8320,490,8160,490C8000,490,7840,490,7680,490C7520,490,7360,490,7200,490C7040,490,6880,490,6720,490C6560,490,6400,490,6240,490C6080,490,5920,490,5760,490C5600,490,5440,490,5280,490C5120,490,4960,490,4800,490C4640,490,4480,490,4320,490C4160,490,4000,490,3840,490C3680,490,3520,490,3360,490C3200,490,3040,490,2880,490C2720,490,2560,490,2400,490C2240,490,2080,490,1920,490C1760,490,1600,490,1440,490C1280,490,1120,490,960,490C800,490,640,490,480,490C320,490,160,490,80,490L0,490Z"/></svg>