<?xml version="1.0" standalone="no"?>
<svg xmlns:xlink="http://www.w3.org/1999/xlink" id="wave" style="transform:rotate(180deg); transition: 0.3s" viewBox="0 0 1440 490" version="1.1" xmlns="http://www.w3.org/2000/svg"><defs><linearGradient id="sw-gradient-0" x1="0" x2="0" y1="1" y2="0"><stop stop-color="rgba(180.186, 60.405, 21.935, 1)" offset="0%"/><stop stop-color="rgba(189.293, 142.171, 38.006, 1)" offset="100%"/></linearGradient></defs><path style="transform:translate(0, 0px); opacity:1" fill="url(#sw-gradient-0)" d="M0,147L102.9,49L205.7,147L308.6,245L411.4,0L514.3,196L617.1,49L720,343L822.9,196L925.7,441L1028.6,392L1131.4,245L1234.3,245L1337.1,49L1440,196L1542.9,343L1645.7,147L1748.6,196L1851.4,0L1954.3,294L2057.1,0L2160,392L2262.9,343L2365.7,147L2468.6,98L2468.6,490L2365.7,490L2262.9,490L2160,490L2057.1,490L1954.3,490L1851.4,490L1748.6,490L1645.7,490L1542.9,490L1440,490L1337.1,490L1234.3,490L1131.4,490L1028.6,490L925.7,490L822.9,490L720,490L617.1,490L514.3,490L411.4,490L308.6,490L205.7,490L102.9,490L0,490Z"/><defs><linearGradient id="sw-gradient-1" x1="0" x2="0" y1="1" y2="0"><stop stop-color="rgba(207.508, 76.658, 34.633, 1)" offset="0%"/><stop stop-color="rgba(223.445, 193.361, 126.861, 1)" offset="100%"/></linearGradient></defs><path style="transform:translate(0, 50px); opacity:0.9" fill="url(#sw-gradient-1)" d="M0,49L102.9,0L205.7,343L308.6,245L411.4,343L514.3,147L617.1,49L720,294L822.9,0L925.7,343L1028.6,392L1131.4,441L1234.3,0L1337.1,49L1440,196L1542.9,49L1645.7,0L1748.6,441L1851.4,147L1954.3,49L2057.1,0L2160,245L2262.9,343L2365.7,147L2468.6,441L2468.6,490L2365.7,490L2262.9,490L2160,490L2057.1,490L1954.3,490L1851.4,490L1748.6,490L1645.7,490L1542.9,490L1440,490L1337.1,490L1234.3,490L1131.4,490L1028.6,490L925.7,490L822.9,490L720,490L617.1,490L514.3,490L411.4,490L308.6,490L205.7,490L102.9,490L0,490Z"/></svg>