<?xml version="1.0" standalone="no"?>
<svg xmlns:xlink="http://www.w3.org/1999/xlink" id="wave" style="transform:rotate(180deg); transition: 0.3s" viewBox="0 0 1440 260" version="1.1" xmlns="http://www.w3.org/2000/svg"><defs><linearGradient id="sw-gradient-0" x1="0" x2="0" y1="1" y2="0"><stop stop-color="rgba(214.81, 221.286, 225.722, 1)" offset="0%"/><stop stop-color="rgba(234.829, 224.803, 225.673, 1)" offset="100%"/></linearGradient></defs><path style="transform:translate(0, 0px); opacity:1" fill="url(#sw-gradient-0)" d="M0,208L48,195C96,182,192,156,288,156C384,156,480,182,576,160.3C672,139,768,69,864,73.7C960,78,1056,156,1152,177.7C1248,199,1344,165,1440,151.7C1536,139,1632,147,1728,151.7C1824,156,1920,156,2016,147.3C2112,139,2208,121,2304,112.7C2400,104,2496,104,2592,104C2688,104,2784,104,2880,112.7C2976,121,3072,139,3168,138.7C3264,139,3360,121,3456,117C3552,113,3648,121,3744,143C3840,165,3936,199,4032,195C4128,191,4224,147,4320,138.7C4416,130,4512,156,4608,143C4704,130,4800,78,4896,47.7C4992,17,5088,9,5184,17.3C5280,26,5376,52,5472,52C5568,52,5664,26,5760,47.7C5856,69,5952,139,6048,164.7C6144,191,6240,173,6336,173.3C6432,173,6528,191,6624,203.7C6720,217,6816,225,6864,229.7L6912,234L6912,260L6864,260C6816,260,6720,260,6624,260C6528,260,6432,260,6336,260C6240,260,6144,260,6048,260C5952,260,5856,260,5760,260C5664,260,5568,260,5472,260C5376,260,5280,260,5184,260C5088,260,4992,260,4896,260C4800,260,4704,260,4608,260C4512,260,4416,260,4320,260C4224,260,4128,260,4032,260C3936,260,3840,260,3744,260C3648,260,3552,260,3456,260C3360,260,3264,260,3168,260C3072,260,2976,260,2880,260C2784,260,2688,260,2592,260C2496,260,2400,260,2304,260C2208,260,2112,260,2016,260C1920,260,1824,260,1728,260C1632,260,1536,260,1440,260C1344,260,1248,260,1152,260C1056,260,960,260,864,260C768,260,672,260,576,260C480,260,384,260,288,260C192,260,96,260,48,260L0,260Z"/></svg>