<?xml version="1.0" standalone="no"?>
<svg xmlns:xlink="http://www.w3.org/1999/xlink" id="wave" style="transform:rotate(180deg); transition: 0.3s" viewBox="0 0 1440 490" version="1.1" xmlns="http://www.w3.org/2000/svg"><defs><linearGradient id="sw-gradient-0" x1="0" x2="0" y1="1" y2="0"><stop stop-color="rgba(227.999, 219.656, 216.977, 1)" offset="0%"/><stop stop-color="rgba(234.829, 224.803, 225.673, 1)" offset="100%"/></linearGradient></defs><path style="transform:translate(0, 0px); opacity:1" fill="url(#sw-gradient-0)" d="M0,49L130.9,98L261.8,196L392.7,294L523.6,441L654.5,196L785.5,294L916.4,147L1047.3,245L1178.2,49L1309.1,294L1440,343L1570.9,49L1701.8,49L1832.7,49L1963.6,245L2094.5,0L2225.5,441L2356.4,147L2487.3,49L2618.2,147L2749.1,196L2880,294L3010.9,245L3141.8,98L3141.8,490L3010.9,490L2880,490L2749.1,490L2618.2,490L2487.3,490L2356.4,490L2225.5,490L2094.5,490L1963.6,490L1832.7,490L1701.8,490L1570.9,490L1440,490L1309.1,490L1178.2,490L1047.3,490L916.4,490L785.5,490L654.5,490L523.6,490L392.7,490L261.8,490L130.9,490L0,490Z"/><defs><linearGradient id="sw-gradient-1" x1="0" x2="0" y1="1" y2="0"><stop stop-color="rgba(241.659, 225.588, 220.427, 1)" offset="0%"/><stop stop-color="rgba(225.722, 207.24, 166.384, 1)" offset="100%"/></linearGradient></defs><path style="transform:translate(0, 50px); opacity:0.9" fill="url(#sw-gradient-1)" d="M0,196L130.9,0L261.8,343L392.7,98L523.6,98L654.5,49L785.5,294L916.4,196L1047.3,0L1178.2,147L1309.1,294L1440,343L1570.9,441L1701.8,0L1832.7,294L1963.6,49L2094.5,49L2225.5,196L2356.4,49L2487.3,196L2618.2,245L2749.1,343L2880,294L3010.9,294L3141.8,245L3141.8,490L3010.9,490L2880,490L2749.1,490L2618.2,490L2487.3,490L2356.4,490L2225.5,490L2094.5,490L1963.6,490L1832.7,490L1701.8,490L1570.9,490L1440,490L1309.1,490L1178.2,490L1047.3,490L916.4,490L785.5,490L654.5,490L523.6,490L392.7,490L261.8,490L130.9,490L0,490Z"/></svg>