<?xml version="1.0" standalone="no"?>
<svg xmlns:xlink="http://www.w3.org/1999/xlink" id="wave" style="transform:rotate(0deg); transition: 0.3s" viewBox="0 0 1440 340" version="1.1" xmlns="http://www.w3.org/2000/svg"><defs><linearGradient id="sw-gradient-0" x1="0" x2="0" y1="1" y2="0"><stop stop-color="rgba(200.677, 105.007, 74.28, 1)" offset="0%"/><stop stop-color="rgba(150.588, 46.388, 55.433, 1)" offset="100%"/></linearGradient></defs><path style="transform:translate(0, 0px); opacity:1" fill="url(#sw-gradient-0)" d="M0,34L160,68L320,136L480,204L640,306L800,136L960,204L1120,102L1280,170L1440,34L1600,204L1760,238L1920,34L2080,34L2240,34L2400,170L2560,0L2720,306L2880,102L3040,34L3200,102L3360,136L3520,204L3680,170L3840,68L3840,340L3680,340L3520,340L3360,340L3200,340L3040,340L2880,340L2720,340L2560,340L2400,340L2240,340L2080,340L1920,340L1760,340L1600,340L1440,340L1280,340L1120,340L960,340L800,340L640,340L480,340L320,340L160,340L0,340Z"/><defs><linearGradient id="sw-gradient-1" x1="0" x2="0" y1="1" y2="0"><stop stop-color="rgba(184.74, 73.773, 38.134, 1)" offset="0%"/><stop stop-color="rgba(225.722, 207.24, 166.384, 1)" offset="100%"/></linearGradient></defs><path style="transform:translate(0, 50px); opacity:0.9" fill="url(#sw-gradient-1)" d="M0,136L160,0L320,238L480,68L640,68L800,34L960,204L1120,136L1280,0L1440,102L1600,204L1760,238L1920,306L2080,0L2240,204L2400,34L2560,34L2720,136L2880,34L3040,136L3200,170L3360,238L3520,204L3680,204L3840,170L3840,340L3680,340L3520,340L3360,340L3200,340L3040,340L2880,340L2720,340L2560,340L2400,340L2240,340L2080,340L1920,340L1760,340L1600,340L1440,340L1280,340L1120,340L960,340L800,340L640,340L480,340L320,340L160,340L0,340Z"/></svg>